# xmcd
#
# Track frame offsets: 
#        150
#        13750
#        30706
#        49785
#        67273
#        87224
#        104192
#        121359
#        144180
#        167087
#
# Disc length: 2482 seconds
#
# Revision: 0
# Processed by: cddbd v1.5.2PL0 Copyright (c) Steve Scherf et al.
# Submitted via: ExactAudioCopyFreeDBPlugin 1.0
#
DISCID=8b09b00a
DTITLE=Sickstring Outlaws, The - Electric Moonshine
DYEAR=2014
DGENRE=Country
TTITLE0=Sounds Like a Country Song to Me
TTITLE1=Just an Empty Bottle
TTITLE2=Cocaine, Cigarettes and Lone Star Beer
TTITLE3=My Best Girl
TTITLE4=My Drinking Ways
TTITLE5=The Life and Death of Sam Dupree
TTITLE6=The Weary Kind
TTITLE7=I Died a Long Time Ago
TTITLE8=I Let You Down
TTITLE9=Electric Moonshine (Tribute to Popcorn Sutton)
EXTD=
EXTT0=
EXTT1=
EXTT2=
EXTT3=
EXTT4=
EXTT5=
EXTT6=
EXTT7=
EXTT8=
EXTT9=
PLAYORDER=
